<svg width="33" height="33" viewBox="0 0 33 33" fill="none" xmlns="http://www.w3.org/2000/svg">
<path d="M6.08234 22.6471V33H22.7765C22.7765 31.1783 22.7765 23.6467 22.7765 22.6471C19.5177 22.6471 9.36182 22.6471 6.08234 22.6471ZM10.8059 28.9236H8.73528V26.9824H10.8059V28.9236ZM20.1235 28.9236H18.0529V26.9824H20.1235V28.9236ZM15.4647 28.9236H13.3941V26.9824H15.4647V28.9236Z" fill="white"/>
<path d="M17.0823 12.8343V20.7058H24.7176V32.9999H28.8587C28.8587 31.2229 28.8587 6.80578 28.8587 6.01624C24.7955 8.36855 23.7884 8.95142 17.0823 12.8343ZM21.1587 17.4705V15.5293H24.7823V17.4705H21.1587Z" fill="white"/>
<path d="M19.6706 0V5.17647H13.3294V0H0V33H4.14118C4.14118 32.4571 4.14118 21.3361 4.14118 20.7059H13.3294V7.11765H19.6706V9.09312C28.2072 4.15341 8.45615 15.5855 30.8 2.64971V33H33V0H19.6706ZM9.25294 18.5059H4.07647V16.5647H9.25294V18.5059ZM9.25294 14.3647H4.07647V12.4235H9.25294V14.3647ZM9.25294 10.2235H4.07647V8.28235H9.25294V10.2235ZM9.25294 6.08235H4.07647V4.14118H9.25294V6.08235Z" fill="white"/>
</svg>
