<svg width="40" height="30" viewBox="0 0 40 30" fill="none" xmlns="http://www.w3.org/2000/svg">
<path d="M24.1666 15.8334V12.5C24.1666 12.0402 23.7923 11.6666 23.3333 11.6666H22.5V16.6666H23.3334C23.7923 16.6666 24.1666 16.2931 24.1666 15.8334Z" fill="white"/>
<path d="M17.5 12.5C17.5 12.0402 17.1256 11.6666 16.6666 11.6666C16.2076 11.6666 15.8333 12.0401 15.8333 12.5V15H17.5V12.5Z" fill="white"/>
<path d="M36.6666 0H3.33336C1.49578 0 0 1.49492 0 3.33336V26.6667C0 28.5051 1.49578 30 3.33336 30H36.6667C38.5042 30 40 28.5051 40 26.6666V3.33336C40 1.49492 38.5042 0 36.6666 0ZM20.8334 10.8334C20.8334 10.3727 21.2061 10 21.6667 10H23.3334C24.712 10 25.8334 11.1214 25.8334 12.5V15.8334C25.8334 17.212 24.712 18.3334 23.3334 18.3334H21.6667C21.2061 18.3334 20.8334 17.9606 20.8334 17.5V10.8334ZM14.1666 12.5C14.1666 11.1214 15.288 10 16.6666 10C18.0452 10 19.1666 11.1214 19.1666 12.5V17.5C19.1666 17.9606 18.7939 18.3334 18.3333 18.3334C17.8727 18.3334 17.4999 17.9606 17.4999 17.5V16.6666H15.8333V17.5C15.8333 17.9606 15.4605 18.3334 14.9999 18.3334C14.5393 18.3334 14.1666 17.9606 14.1666 17.5V12.5H14.1666ZM35.8334 26.6666H8.91055C8.61977 27.1555 8.10922 27.5 7.5 27.5C6.89078 27.5 6.38023 27.1555 6.08945 26.6666H4.16664C3.70602 26.6666 3.33328 26.2939 3.33328 25.8333C3.33328 25.3727 3.70609 25 4.16664 25H6.08945C6.38016 24.5111 6.89078 24.1666 7.5 24.1666C8.10922 24.1666 8.61977 24.5111 8.91055 25H35.8334C36.294 25 36.6667 25.3727 36.6667 25.8334C36.6667 26.294 36.294 26.6666 35.8334 26.6666Z" fill="white"/>
</svg>
