<svg width="34" height="34" viewBox="0 0 34 34" fill="none" xmlns="http://www.w3.org/2000/svg">
<path d="M20.5175 7.60457C22.0896 8.59025 23.192 10.2582 23.3927 12.1943C24.0338 12.4939 24.7454 12.6662 25.4998 12.6662C28.254 12.6662 30.4863 10.4339 30.4863 7.6801C30.4863 4.9259 28.254 2.6936 25.4998 2.6936C22.7719 2.69445 20.5591 4.88686 20.5175 7.60457ZM17.2508 17.8143C20.005 17.8143 22.2373 15.5816 22.2373 12.8278C22.2373 10.0741 20.0045 7.84176 17.2508 7.84176C14.497 7.84176 12.2634 10.0745 12.2634 12.8283C12.2634 15.582 14.497 17.8143 17.2508 17.8143ZM19.366 18.1542H15.1347C11.6142 18.1542 8.75013 21.0187 8.75013 24.5392V29.7137L8.76328 29.7947L9.11971 29.9063C12.4794 30.9561 15.3982 31.3061 17.8007 31.3061C22.4931 31.3061 25.213 29.9683 25.3806 29.883L25.7136 29.7145H25.7493V24.5392C25.7506 21.0187 22.8865 18.1542 19.366 18.1542ZM27.6158 13.0065H23.4173C23.3719 14.6863 22.6548 16.199 21.5206 17.2869C24.6499 18.2174 26.9395 21.1193 26.9395 24.5469V26.1414C31.085 25.9895 33.4739 24.8146 33.6313 24.7357L33.9644 24.5668H34V19.3906C34 15.8706 31.1359 13.0065 27.6158 13.0065ZM8.50106 12.667C9.47655 12.667 10.3842 12.3823 11.153 11.8973C11.3974 10.3032 12.252 8.91018 13.4727 7.96142C13.4778 7.86807 13.4867 7.77557 13.4867 7.68137C13.4867 4.92717 11.254 2.69488 8.50106 2.69488C5.74644 2.69488 3.51456 4.92717 3.51456 7.68137C3.51456 10.4343 5.74644 12.667 8.50106 12.667ZM12.9792 17.2869C11.8506 16.2045 11.136 14.6999 11.0838 13.0302C10.9281 13.0188 10.7741 13.0065 10.6154 13.0065H6.3846C2.8641 13.0065 0 15.8706 0 19.3906V24.566L0.0131536 24.6457L0.369574 24.7582C3.06479 25.5996 5.47021 25.9874 7.55952 26.1096V24.5469C7.56036 21.1193 9.8491 18.2183 12.9792 17.2869Z" fill="white"/>
</svg>
