<svg width="37" height="29" viewBox="0 0 37 29" fill="none" xmlns="http://www.w3.org/2000/svg">
<path d="M10.3573 24.4977H4.35925V11.0856C4.35925 10.7518 4.62982 10.4812 4.96361 10.4812H9.75297C10.0868 10.4812 10.3573 10.7518 10.3573 11.0856V24.4977Z" fill="white"/>
<path d="M21.4988 24.4979H15.5007V8.44188C15.5007 8.10809 15.7713 7.83752 16.1051 7.83752H20.8945C21.2282 7.83752 21.4988 8.10809 21.4988 8.44188V24.4979Z" fill="white"/>
<path d="M32.6403 24.4979H26.6422V12.0493C26.6422 11.7155 26.9128 11.4449 27.2466 11.4449H32.0359C32.3697 11.4449 32.6403 11.7155 32.6403 12.0493V24.4979Z" fill="white"/>
<path d="M35.9137 28.8013H1.08632C0.486381 28.8013 0 28.3149 0 27.715C0 27.115 0.486381 26.6287 1.08632 26.6287H35.9137C36.5136 26.6287 37 27.115 37 27.715C37 28.3149 36.5137 28.8013 35.9137 28.8013Z" fill="white"/>
<path d="M36.5454 4.33254C36.5814 3.87853 36.3168 3.32103 35.7108 3.18003L32.2009 2.3269C31.6177 2.18474 31.0305 2.54286 30.8888 3.12586C30.7471 3.70885 31.1048 4.29633 31.6878 4.43798L32.6805 4.67929L29.8664 6.41588L19.1961 0.341187C18.8893 0.166435 18.5165 0.151734 18.1971 0.301863L7.59077 5.28024L2.52056 2.11587C2.01165 1.79801 1.34154 1.95328 1.02383 2.46226C0.70619 2.97116 0.861316 3.64128 1.37029 3.95899L6.94209 7.43629C7.25473 7.63147 7.64508 7.65479 7.9788 7.49814L18.6106 2.50781L29.3514 8.6227C29.6309 8.76928 30.0204 8.84525 30.4594 8.60307L33.8708 6.49786L33.6436 7.56187C33.3936 8.9772 35.3971 9.37914 35.7683 8.01566L36.5213 4.48918C36.5298 4.43972 36.533 4.44667 36.5454 4.33254Z" fill="white"/>
</svg>
