<svg width="15" height="21" viewBox="0 0 15 21" fill="none" xmlns="http://www.w3.org/2000/svg">
<path d="M7.51106 0.807706C7.50238 0.807312 7.49528 0.807312 7.4866 0.807706C7.47714 0.807312 7.47004 0.806918 7.46215 0.807706C3.40397 0.82782 0.109314 4.13194 0.109314 8.19012C0.109314 10.1167 0.947768 11.7076 1.65608 12.7074C1.66002 12.7141 1.66475 12.7208 1.67027 12.7275L6.98574 19.9458C7.09932 20.1008 7.30756 20.1923 7.50001 20.1923C7.69247 20.1923 7.87389 20.1008 7.98747 19.9458L13.3029 12.7275C13.3085 12.7208 13.3132 12.7141 13.3171 12.7074C14.0254 11.7076 14.8639 10.1167 14.8639 8.19012C14.8639 4.13194 11.5692 0.82782 7.51106 0.807706ZM12.3201 12.0192C12.3201 12.0196 12.3201 12.0196 12.3201 12.0196L7.4866 18.5832L2.65307 12.0196C2.65307 12.0196 2.65307 12.0196 2.65307 12.0192C2.04494 11.1642 1.32085 9.8059 1.32085 8.19012C1.32085 4.79174 4.08546 2.02634 7.4866 2.01924C10.8877 2.02634 13.6524 4.79174 13.6524 8.19012C13.6524 9.8059 12.9283 11.1642 12.3201 12.0192Z" fill="white"/>
</svg>
