<svg width="247" height="82" viewBox="0 0 247 82" fill="none" xmlns="http://www.w3.org/2000/svg">
<path fill-rule="evenodd" clip-rule="evenodd" d="M28.4413 17.4104H18.7962V26.558L3.38902 41.1534L18.7962 55.752V64.837H28.4413L32.0112 68.2203L43.9111 79.4356L55.7483 68.2235L59.3808 64.8401H68.9633V55.7552L72.5959 52.3718L84.4331 41.1566L72.5959 29.9414L68.9633 26.558V17.4104H59.3808L55.7483 14.027L43.9111 2.81179L28.4413 17.4104ZM15.2262 14.027H29.506L43.9111 0.430908L58.3161 14.027H72.5959V27.4978L87.001 41.1545L72.5959 54.7506V68.2214H58.3161L43.9111 81.8175L29.506 68.2214H15.2262V54.7506L0.821167 41.1545L15.2262 27.4957V14.0249V14.027ZM8.39948 41.1545L43.9111 7.63413L79.36 41.1545L43.9111 74.6748L8.39948 41.1545Z" fill="white"/>
<path fill-rule="evenodd" clip-rule="evenodd" d="M68.9633 31.3199C65.005 35.9146 59.6522 39.2541 53.8693 41.0314C50.7326 41.9649 48.1094 42.3179 44.8505 42.4724C42.2388 42.4359 39.53 42.8421 37.2096 44.1014C33.0238 46.2651 30.0519 50.3513 29.8192 55.1287C29.4475 64.8694 37.9778 67.5615 43.911 74.677L54.3077 64.8402L68.9633 50.9308L79.36 41.1567L68.9633 31.3199ZM18.7962 50.9308C22.6688 46.6463 27.6292 43.2942 33.1386 41.5326C39.1908 39.0838 44.3328 40.6638 49.3599 38.7131C53.5175 37.1676 56.7712 33.4606 57.7524 29.1269C59.6397 18.484 50.5426 14.7685 43.911 7.63633L33.5144 17.4105L18.7962 31.3178L8.39949 41.1546L18.7962 50.9287V50.9308ZM3.38904 41.1546L18.7962 26.556V17.4084H28.4413L43.911 2.80981L59.3808 17.4084H68.9633V26.556L84.4331 41.1546L68.9633 55.7532V64.8381H59.3808L43.911 79.4367L28.4413 64.8381H18.7962V55.7532L3.38904 41.1567V41.1546Z" fill="#011027"/>
<path fill-rule="evenodd" clip-rule="evenodd" d="M148.567 60.0784L142.868 49.2392L137.105 60.0784H148.567ZM95.5187 57.3822V64.1489H112.554L112.93 64.0236H113.055C113.438 63.916 113.77 63.7103 114.12 63.5224L114.308 63.3971L114.558 63.1464L114.746 62.8958L114.997 62.6452L115.122 62.3967C115.394 62.1179 115.446 61.6782 115.561 61.3315C115.611 60.2727 115.529 59.4435 114.746 58.6374L114.558 58.3868L114.308 58.1988L113.995 57.9482L113.682 57.8229L113.368 57.6349L113.243 57.5723L113.055 57.5075C107.325 56.7556 101.432 56.9488 95.5187 57.3822ZM95.5187 46.5429V53.3096H112.554L112.742 53.247H112.93L113.055 53.1843C113.431 53.0486 113.833 52.9107 114.12 52.6204C114.564 52.4847 114.922 51.9552 115.122 51.5553C115.404 51.2566 115.467 50.8066 115.561 50.4275C115.609 49.2997 115.516 48.6888 114.746 47.796L114.558 47.5454L114.308 47.2948L113.995 47.1695L113.368 46.7935L113.243 46.7309H113.055L112.93 46.6682L112.742 46.6056H112.554L112.366 46.5408H95.5187V46.5429ZM162.909 42.4703H170.049L190.154 61.4548V42.4724H197.294V68.2236H190.154L170.049 49.2392V68.2236H162.909V42.4724V42.4703ZM212.513 55.3772L230.987 42.4724H223.095L207.375 53.3117V42.4724H200.172V68.2236H207.375V57.3822L223.095 68.2215H230.987L212.511 55.3772H212.513ZM215.958 14.025H223.097V24.8643L238.88 14.025H246.772L228.296 26.9319L246.772 39.7762H238.88L223.097 28.9369V39.7762H215.958V14.0271V14.025ZM200.175 28.9369V39.7762H193.035V28.939L179.381 14.0271H186.584L196.605 24.8664L206.626 14.0271H213.828L200.175 28.939V28.9369ZM162.909 14.025H170.049V35.7036H190.154V39.7762H162.909V14.0271V14.025ZM142.868 20.7917L148.567 31.631H137.105L142.868 20.7917ZM152.888 39.7762H160.028L146.437 14.025H139.235L125.644 39.7762H132.784L134.913 35.7036H150.696L152.888 39.7762ZM88.3788 14.025H95.5187V24.8643H115.561V14.0271H122.763V39.7783H115.561V28.939H95.5187V39.7783H88.3788V14.0271V14.025ZM88.3788 42.4703H116.312L116.625 42.533H117.001L117.314 42.5977L117.627 42.723L117.94 42.7857L118.316 42.911C119.114 43.1794 119.854 43.6232 120.508 44.1641C121.828 45.3754 122.663 46.8061 122.763 48.6126C122.92 52.4325 119.642 55.3501 115.936 55.3793C119.428 55.2488 122.788 58.2092 122.763 61.7701C122.792 63.514 121.994 65.1462 120.759 66.3439C120.112 66.9412 119.4 67.4299 118.567 67.7223L118.316 67.8476L117.94 67.9103L117.627 68.0356L117.314 68.0983L117.001 68.1609L116.625 68.2236H88.3788V42.4724V42.4703ZM132.784 68.2215H125.644L139.235 42.4703H146.437L160.028 68.2215H152.888L150.696 64.1489H134.913L132.784 68.2215Z" fill="white"/>
<path fill-rule="evenodd" clip-rule="evenodd" d="M125.895 0.493542H131.657V1.18275H129.339V4.56611H128.212V1.18275H125.895V0.493542ZM83.1178 3.1877L84.0572 1.49602L84.9967 3.1877H83.1178ZM84.6209 0.493542H83.4936L81.1762 4.56611H82.3036L82.742 3.87691H85.3725L85.7483 4.56611H86.9382L84.6209 0.493542ZM91.0719 0.493542C90.2201 0.631383 90.3725 1.16395 90.3829 1.87195H91.5103V1.18275H94.3913V2.18522H92.9508V2.87443H94.3913V3.87691H91.5103V3.1877H90.3829C90.4247 3.60331 90.2128 4.22151 90.6961 4.4408L90.9466 4.56611H94.955L95.0802 4.50345L95.2055 4.4408C95.6543 4.23926 95.5186 3.39446 95.5186 3.06239C95.3642 2.73659 95.2316 2.50477 94.8297 2.56115L94.955 2.4985H95.0802L95.2055 2.43584L95.3934 2.24788L95.5186 1.99726V1.05744L95.3308 0.681507L95.2055 0.618853L95.0802 0.556199L94.955 0.493542H91.0719ZM100.842 3.1877L101.844 1.49602L102.784 3.1877H100.842ZM102.408 0.493542H101.218L98.9633 4.56611H100.091L100.466 3.87691H103.16L103.535 4.56611H104.725L102.408 0.493542ZM117.439 0.493542H121.886L122.262 0.681507C122.615 1.37802 122.364 0.808907 122.45 1.87195H121.322V1.18275H117.878V3.87691H121.322V3.1877H122.45V4.00222L122.262 4.37815L122.137 4.4408L121.886 4.56611H117.314L116.938 4.37815L116.75 4.00222V1.05744C116.904 0.688818 117.006 0.545755 117.439 0.493542ZM136.98 3.1877L137.982 1.49602L138.922 3.1877H136.98ZM138.546 0.493542H137.356L135.101 4.56611H136.229L136.604 3.87691H139.297L139.673 4.56611H140.801L138.546 0.493542ZM144.245 0.493542H145.435V2.18522H148.817V0.493542H150.007V4.56611H148.817V2.87443H145.435V4.56611H144.245V0.493542ZM72.5958 0.493542H73.7232V2.18522L76.3537 0.493542H77.7315L74.6 2.56115L77.2305 4.19018H77.7315L76.98 5.31797H76.4163L76.6042 4.56611H76.3537L73.7232 2.87443V4.56611H72.5958V0.493542ZM211.197 2.87443V3.87691H213.64L213.765 3.81425H213.891L214.016 3.68894L214.078 3.56363V3.1877L214.016 3.06239L213.891 2.93708L213.765 2.87443H211.197ZM210.07 0.493542H214.642V1.18275H211.197V2.18522H214.204L214.454 2.31054H214.579L214.642 2.37319L214.767 2.43584L215.018 2.68646L215.143 2.93708L215.206 2.99974V3.7516L215.143 3.81425L215.081 3.93956L215.018 4.00222L214.955 4.12753L214.893 4.19018L214.767 4.25283L214.64 4.37815L214.577 4.4408H214.452L214.327 4.50345H214.202L214.076 4.56611H210.068V0.493542H210.07ZM220.592 3.1877L221.532 1.49602L222.471 3.1877H220.592ZM222.095 0.493542H220.968L218.651 4.56611H219.84L220.216 3.87691H222.847L223.285 4.56611H224.413L222.095 0.493542ZM227.857 0.493542H228.985V2.18522H232.429V0.493542H233.557V4.56611H232.429V2.87443H228.985V4.56611H227.857V0.493542ZM237.001 0.493542H238.191V2.18522L240.822 0.493542H242.2L239.068 2.56115L242.2 4.56611H240.822L238.191 2.87443V4.56611H237.001V0.493542ZM245.644 4.56611V0.493542H246.772V4.56611H245.644ZM161.469 2.87443L159.903 4.56611H158.588L160.467 2.56115L158.588 0.493542H159.903L161.469 2.18522L163.034 0.493542H164.35L162.408 2.56115L164.35 4.56611H163.034L161.469 2.87443ZM169.673 3.1877L170.613 1.49602L171.615 3.1877H169.673ZM171.239 0.493542H170.049L167.794 4.56611H168.922L169.298 3.87691H171.991L172.366 4.56611H173.494L171.239 0.493542ZM187.273 2.87443V3.87691H189.715L189.84 3.81425H189.903L190.028 3.68894L190.093 3.56363L190.156 3.50098V3.25036L190.093 3.1877L190.03 3.06239L189.905 2.93708L189.842 2.87443H187.273ZM191.845 4.56611V0.493542H193.035V4.56611H191.845ZM186.083 0.493542H187.273V2.18522H190.279L190.529 2.31054H190.592L190.843 2.43584C191.026 2.7888 191.339 2.90889 191.281 3.37567V3.62629L191.218 3.7516V3.81425L191.03 4.00222L190.968 4.12753L190.717 4.37815L190.592 4.4408H190.529L190.404 4.50345H190.279L190.154 4.56611H186.083V0.493542ZM180.383 0.493542H179.256L176.938 4.56611H178.066L179.819 1.49602L181.511 4.56611H182.701L180.383 0.493542ZM196.417 0.493542H197.607V2.18522L200.237 0.493542H201.615L198.483 2.56115L201.051 4.19018H201.615L200.863 5.31797H200.237L200.488 4.56611H200.237L197.607 2.87443V4.56611H196.417V0.493542ZM242.951 80.4411L243.891 78.7495L244.893 80.4411H242.951ZM218.651 77.7449H224.413V78.3715H222.158V81.7548H220.968V78.3715H218.651V77.7449ZM182.262 80.4391L183.202 78.7474L184.204 80.4391H182.262ZM183.828 77.7449H182.638L180.383 81.7548H181.511L181.886 81.1283H184.579L184.955 81.7548H186.083L183.828 77.7449ZM188.713 77.7449H188.463L188.337 77.8076L188.149 77.9955L188.024 78.2461V79.0607H189.151V78.3715H192.032V79.3739H190.592V80.0631H192.032V81.1283H189.151V80.4391H188.024C188.087 81.1262 187.852 81.2557 188.337 81.6922L188.463 81.7569H192.721L192.847 81.6943C193.331 81.2818 193.122 80.9967 193.16 80.3158C193.052 80.0099 192.829 79.7206 192.471 79.7519H192.596L192.786 79.6893L192.849 79.6266L192.974 79.5619C193.327 78.8643 193.076 79.4335 193.162 78.3715V78.2461L193.037 77.9955L192.974 77.9329L192.849 77.8076L192.723 77.7449H188.715H188.713ZM197.043 80.4391L197.982 78.7474L198.922 80.4391H197.043ZM198.546 77.7449H197.419L195.101 81.7548H196.229L196.605 81.1283H199.298L199.673 81.7548H200.863L198.546 77.7449ZM205.623 80.0631L204.058 81.7548H202.742L204.621 79.7499L202.742 77.7449H204.058L205.623 79.3739L207.189 77.7449H208.504L206.625 79.7499L208.504 81.7548H207.189L205.623 80.0631ZM211.448 77.7449H216.02L216.145 77.8076L216.333 77.9955L216.458 78.2461V79.0607H215.331V78.3715H211.886V81.1283H215.331V80.4391H216.458C216.396 81.1262 216.631 81.2557 216.145 81.6922L216.02 81.7569H211.197L211.072 81.6943L210.884 81.5063L210.759 81.2557V78.2482C210.914 77.9224 211.046 77.6906 211.448 77.7449ZM227.607 80.4391L228.609 78.7474L229.548 80.4391H227.607ZM229.172 77.7449H228.045L225.728 81.7548H226.855L227.231 81.1283H229.922L230.298 81.7548H231.425L229.172 77.7449ZM233.369 77.7449H234.559V79.3739H237.941V77.7449H239.131V81.7548H237.941V80.0631H234.559V81.7548H233.369V77.7449ZM173.306 77.7449H174.433V79.3739L177.064 77.7449H178.442L175.31 79.7499L178.442 81.7548H177.064L174.433 80.0631V81.7548H173.306V77.7449ZM244.454 77.7449H243.327L241.01 81.7548H242.2L242.575 81.1283H245.269L245.644 81.7548H246.772L244.454 77.7449ZM72.5958 77.7449H73.7232V79.3739H77.1679V77.7449H78.2952V81.7548H77.1679V80.0631H73.7232V81.7548H72.5958V77.7449ZM82.1783 80.4391L83.1178 78.7474L84.0572 80.4391H82.1783ZM83.6815 77.7449H82.5541L80.2368 81.7548H81.3641L81.7399 81.1283H84.433L84.8088 81.7548H85.9988L83.6815 77.7449ZM96.1449 81.1283V78.3715H99.5896V81.1283H96.1449ZM95.7065 77.7449H100.279L100.404 77.8076L100.466 77.9329L100.592 77.9955L100.717 78.2461V81.2536L100.592 81.5042L100.466 81.5668L100.404 81.6922L100.279 81.7569H95.3934L95.2681 81.6943L95.2055 81.5689L95.0802 81.5063L95.0176 81.381V81.2557L94.955 81.1304V78.3735L95.0176 78.2482V78.1229L95.0802 77.9976L95.2055 77.935L95.2681 77.8096L95.3934 77.7449H95.7065ZM89.0051 79.3739V78.3715H91.5103L91.5729 78.4341L91.6982 78.4989L91.8861 78.6868V78.8121L91.9487 78.8748L91.8861 79.0001V79.1254L91.6982 79.3134L91.5729 79.376H89.0051V79.3739ZM87.8777 81.7548H89.0051V80.0631H92.1992L92.2619 80.0005L92.5124 79.8752L92.575 79.8125L92.7003 79.7499L92.765 79.6245L92.8276 79.5619L92.8902 79.4366L92.9529 79.3739L93.0155 79.2486V78.998L93.0802 78.8727L93.0176 78.81V78.5594L92.8923 78.3088L92.8297 78.2461L92.7671 78.1208L92.7024 78.0582L92.5771 77.9934L92.5145 77.9308L92.2639 77.8055L92.2013 77.7428H87.8777V81.7559V81.7548ZM104.162 81.1283H107.231V78.3715C104.732 78.2044 103.843 78.4895 104.162 81.1283ZM102.659 81.1283H103.222C103.415 79.447 102.796 79.4783 103.849 78.3088L103.974 78.1856L104.35 77.935L104.537 77.8723L104.913 77.747H108.358V81.1304H108.922V81.7569H102.659V81.1304V81.1283ZM110.863 77.7449H111.991V79.3739H115.435V77.7449H116.563V81.7548H115.435V80.0631H111.991V81.7548H110.863V77.7449ZM119.694 80.0631V81.1283H122.011L122.137 81.0656H122.199L122.325 81.003L122.512 80.815V80.6897L122.575 80.5644L122.512 80.5017V80.3764L122.325 80.1884L122.199 80.1258H122.137L122.011 80.0631H119.694ZM124.266 81.7548V77.7449H125.393V81.7548H124.266ZM118.504 77.7449H119.694V79.3739H122.387L122.575 79.4366H122.826L122.888 79.5013L123.014 79.564L123.139 79.6266L123.201 79.6893L123.327 79.754L123.391 79.8167L123.454 79.942L123.517 80.0047L123.642 80.2553V80.5059L123.705 80.5686L123.642 80.6939V80.9445L123.579 81.0698L123.517 81.1324L123.454 81.2578L123.391 81.3204L123.327 81.4457L123.201 81.5084L123.139 81.571L122.888 81.6963L122.826 81.7611H118.504V77.7449ZM129.089 77.7449V77.0557H131.281V77.7449H129.089ZM133.034 77.7449H131.907L128.462 80.6897V77.7449H127.335V81.7548H128.462L131.907 78.81V81.7548H133.034V77.7449ZM141.114 80.0631V81.1283H143.431L143.556 81.0656H143.682L143.932 80.815L143.995 80.6897V80.5017L143.932 80.3764L143.682 80.1258H143.556L143.431 80.0631H141.114ZM139.986 77.7449H144.558V78.3715H141.114V79.3739H143.87L143.995 79.4366H144.245L144.371 79.5013C144.496 79.5703 144.725 79.7039 144.809 79.8146C145.105 80.177 144.99 80.013 145.122 80.3785C145.133 80.8171 145.119 80.697 145.059 81.0677L144.934 81.1304V81.2557L144.809 81.3183L144.746 81.4436L144.684 81.5063L144.558 81.5689L144.496 81.6337L144.371 81.6963L144.245 81.759H139.986V77.747V77.7449ZM148.692 80.4391L149.694 78.7474L150.634 80.4391H148.692ZM150.258 77.7449H149.068L146.813 81.7548H147.94L148.316 81.1283H151.009L151.385 81.7548H152.513L150.258 77.7449ZM154.454 77.7449H155.581V79.3739H159.026V77.7449H160.216V81.7548H159.026V80.0631H155.581V81.7548H154.454V77.7449ZM162.346 77.7449H163.473V79.3739L166.166 77.7449H167.481L164.412 79.7499L167.481 81.7548H166.166L163.473 80.0631V81.7548H162.346V77.7449ZM108.17 0.491455H109.297V2.18314L111.928 0.491455H113.306L110.174 2.55907L112.805 4.18809H113.306L112.554 5.31588H111.928L112.178 4.56402H111.928L109.297 2.87234V4.56402H108.17V0.491455Z" fill="white"/>
</svg>
