<svg width="22" height="23" viewBox="0 0 22 23" fill="none" xmlns="http://www.w3.org/2000/svg">
<path d="M11 2.81753C13.9353 2.81753 14.2832 2.82709 15.4432 2.88128C16.5161 2.92908 17.0993 3.10757 17.4859 3.25736C17.9982 3.45497 18.3656 3.69082 18.749 4.07009C19.1324 4.44937 19.3708 4.8127 19.5706 5.31946C19.722 5.70193 19.8992 6.2788 19.9508 7.34013C20.0023 8.48751 20.0152 8.83173 20.0152 11.7352C20.0152 14.6388 20.0056 14.983 19.9508 16.1304C19.9025 17.1917 19.722 17.7686 19.5706 18.151C19.3708 18.6578 19.1324 19.0211 18.749 19.4004C18.3656 19.7797 17.9982 20.0155 17.4859 20.2131C17.0993 20.3629 16.5161 20.5382 15.4432 20.5892C14.2832 20.6402 13.9353 20.653 11 20.653C8.06473 20.653 7.71675 20.6434 6.55682 20.5892C5.48389 20.5414 4.9007 20.3629 4.51406 20.2131C4.00176 20.0155 3.63445 19.7797 3.25102 19.4004C2.8676 19.0211 2.62917 18.6578 2.42941 18.151C2.27797 17.7686 2.10076 17.1917 2.04921 16.1304C1.99766 14.983 1.98477 14.6388 1.98477 11.7352C1.98477 8.83173 1.99443 8.48751 2.04921 7.34013C2.09754 6.2788 2.27797 5.70193 2.42941 5.31946C2.62917 4.8127 2.8676 4.44937 3.25102 4.07009C3.63445 3.69082 4.00176 3.45497 4.51406 3.25736C4.9007 3.10757 5.48389 2.93227 6.55682 2.88128C7.71675 2.82709 8.06473 2.81753 11 2.81753ZM11 0.857422C8.01318 0.857422 7.63942 0.870171 6.46661 0.924353C5.29701 0.978535 4.49795 1.1602 3.79555 1.43111C3.07381 1.70521 2.45841 2.07811 1.84944 2.68367C1.23726 3.28924 0.863503 3.8948 0.579965 4.61191C0.309315 5.30353 0.122437 6.09395 0.0676623 7.25408C0.0128878 8.41421 0 8.78392 0 11.7384C0 14.6929 0.0128878 15.0627 0.0676623 16.2228C0.122437 17.3797 0.306093 18.1701 0.579965 18.865C0.860281 19.5757 1.23726 20.1844 1.84944 20.7868C2.46163 21.3924 3.07381 21.7621 3.79877 22.0426C4.49795 22.3103 5.29701 22.4951 6.46983 22.5493C7.64265 22.6035 8.0164 22.6163 11.0032 22.6163C13.99 22.6163 14.3638 22.6035 15.5366 22.5493C16.7062 22.4951 17.5053 22.3135 18.2077 22.0426C18.9262 21.7653 19.5416 21.3924 20.1506 20.7868C20.7627 20.1813 21.1365 19.5757 21.42 18.8586C21.6907 18.167 21.8776 17.3765 21.9323 16.2164C21.9871 15.0563 22 14.6866 22 11.7321C22 8.77755 21.9871 8.40784 21.9323 7.2477C21.8776 6.09076 21.6939 5.30034 21.42 4.60554C21.1397 3.8948 20.7627 3.28605 20.1506 2.68367C19.5384 2.07811 18.9262 1.7084 18.2012 1.42793C17.5021 1.1602 16.703 0.975347 15.5302 0.921165C14.3606 0.870171 13.9868 0.857422 11 0.857422Z" fill="white"/>
<path d="M11 6.14819C7.8811 6.14819 5.35181 8.65013 5.35181 11.7353C5.35181 14.8205 7.8811 17.3224 11 17.3224C14.1189 17.3224 16.6482 14.8205 16.6482 11.7353C16.6482 8.65013 14.1189 6.14819 11 6.14819ZM11 15.3623C8.97659 15.3623 7.33335 13.74 7.33335 11.7353C7.33335 9.73058 8.97659 8.10831 11 8.10831C13.0235 8.10831 14.6667 9.73058 14.6667 11.7353C14.6667 13.74 13.0235 15.3623 11 15.3623Z" fill="white"/>
<path d="M16.8706 7.23507C17.6001 7.23507 18.1916 6.65002 18.1916 5.92832C18.1916 5.20663 17.6001 4.62158 16.8706 4.62158C16.141 4.62158 15.5495 5.20663 15.5495 5.92832C15.5495 6.65002 16.141 7.23507 16.8706 7.23507Z" fill="white"/>
</svg>
