<svg width="24" height="17" viewBox="0 0 24 17" fill="none" xmlns="http://www.w3.org/2000/svg">
<path d="M22.8188 3.32632C22.5604 2.35785 21.7954 1.59788 20.823 1.33895C19.0618 0.868164 12.0034 0.868164 12.0034 0.868164C12.0034 0.868164 4.94157 0.868164 3.18377 1.33895C2.21137 1.59788 1.44637 2.35785 1.18798 3.32632C0.711975 5.0783 0.711975 8.73695 0.711975 8.73695C0.711975 8.73695 0.711975 12.3956 1.18457 14.1476C1.44297 15.1161 2.20798 15.876 3.18037 16.135C4.94157 16.6057 12 16.6057 12 16.6057C12 16.6057 19.0618 16.6057 20.8196 16.135C21.792 15.876 22.557 15.1161 22.8154 14.1476C23.288 12.3956 23.288 8.73695 23.288 8.73695C23.288 8.73695 23.288 5.0783 22.8188 3.32632ZM9.69137 12.056V5.41794L15.5904 8.73695L9.69137 12.056Z" fill="white"/>
</svg>
