<svg width="25" height="19" viewBox="0 0 25 19" fill="none" xmlns="http://www.w3.org/2000/svg">
<path d="M22.3361 0.846191H2.66396C1.72496 0.846191 0.961548 1.65749 0.961548 2.65471V16.3454C0.961548 17.3426 1.72496 18.1539 2.66396 18.1539H22.3361C23.2751 18.1539 24.0385 17.3426 24.0385 16.3454V2.65471C24.0385 1.65749 23.2751 0.846191 22.3361 0.846191ZM15.0641 9.50033L22.5962 4.06445V14.9357L15.0641 9.50033ZM22.3361 2.2885C22.3875 2.2885 22.4397 2.3196 22.485 2.36608L12.5 9.57228L2.51501 2.36608C2.56032 2.3196 2.61249 2.2885 2.66396 2.2885H22.3361ZM2.40386 14.9356V4.06445L9.93542 9.49998L2.40386 14.9356ZM2.66396 16.7116C2.61249 16.7116 2.56032 16.6804 2.51501 16.6339L11.1676 10.3893L12.0784 11.0466C12.1 11.0622 12.125 11.0686 12.1478 11.0816C12.17 11.0942 12.1908 11.1049 12.2141 11.115C12.3063 11.1553 12.4021 11.1827 12.4991 11.1827C12.4994 11.1827 12.4997 11.1825 12.5 11.1825C12.5004 11.1825 12.5006 11.1827 12.5009 11.1827C12.598 11.1827 12.6937 11.1553 12.7859 11.115C12.8092 11.1049 12.83 11.0942 12.8523 11.0816C12.875 11.0686 12.9 11.0622 12.9216 11.0466L13.8319 10.3896L22.485 16.634C22.4397 16.6804 22.3875 16.7116 22.3361 16.7116H2.66396Z" fill="white"/>
</svg>
