<svg width="24" height="23" viewBox="0 0 24 23" fill="none" xmlns="http://www.w3.org/2000/svg">
<path d="M22.6127 17.4303C22.2404 16.8293 21.6626 16.1295 20.9838 15.459C20.4925 14.9731 18.8059 13.3888 17.7215 13.3888C17.3735 13.3888 17.1526 13.5359 17.0291 13.6581L15.585 15.0854C15.5607 15.1095 15.4832 15.1372 15.3435 15.1372C14.5421 15.1372 12.8429 14.2599 11.1454 12.5819C8.88191 10.3423 8.33744 8.46472 8.61418 8.19101L10.0565 6.76362C10.1809 6.64059 10.3296 6.42215 10.3296 6.0789C10.3305 5.00546 8.72777 3.33735 8.23648 2.85145C7.7461 2.36555 6.0604 0.78125 4.97416 0.78125C4.6271 0.78125 4.40625 0.927466 4.28185 1.0505L1.39453 3.90617C0.541769 4.74869 0.852766 6.39719 2.31941 8.80529C3.59225 10.8951 5.60697 13.3451 7.99039 15.7024C12.2182 19.8838 16.4991 22.6931 18.6427 22.6922C19.1764 22.6922 19.6046 22.5353 19.9174 22.226L22.8047 19.3703C23.4294 18.7524 22.8146 17.7575 22.6127 17.4303ZM18.9384 21.2577C18.906 21.2889 18.8122 21.3228 18.6427 21.3228C17.1833 21.3228 13.2972 19.0137 8.96935 14.7342C6.66256 12.4527 4.72266 10.0963 3.50571 8.09829C2.13462 5.84799 2.26352 4.98317 2.3735 4.8744L5.09135 2.18635C5.44561 2.32187 6.26683 2.83897 7.25751 3.81969C8.2482 4.8004 8.77194 5.61172 8.90896 5.96211L7.63522 7.22277C6.30739 8.53604 8.01653 11.4229 10.1665 13.5502C12.0108 15.3743 13.9949 16.5066 15.3435 16.5066C15.9736 16.5066 16.3549 16.2605 16.564 16.0537L17.8386 14.7939C18.1929 14.9294 19.0132 15.4474 20.0048 16.4272C20.9955 17.4071 21.5192 18.2193 21.6563 18.5697L18.9384 21.2577Z" fill="white"/>
</svg>
